<?xml version="1.0" encoding="UTF-8"?>
<!-- Generator: visioncortex VTracer -->
<svg id="svg" version="1.1" xmlns="http://www.w3.org/2000/svg" style="display: block;" viewBox="0 0 1024 1024">
<style>
  /* This targets the text part of your logo */
  text, .tusk-text-class { 
    fill: #24292e; 
    transition: fill 0.3s ease;
  }

  /* This tells GitHub to switch text color in Dark Mode */
  @media (prefers-color-scheme: dark) {
    text, .tusk-text-class { 
      fill: #f0f6fc; 
    }
  }

  /* These ensure your brand colors NEVER change, even in dark mode */
  .brand-blue { fill: #0064a5 !important; }
  .brand-orange { fill: #ff8c00 !important; }
</style><path d="M0 0 C1.75038574 0.04858154 1.75038574 0.04858154 3.53613281 0.09814453 C22.02231458 0.73391269 22.02231458 0.73391269 30.65234375 3.6796875 C37.49426949 5.90216539 44.62101278 4.53276249 51.625 3.625 C57.65174143 2.85977441 63.61082893 2.38221581 69.6875 2.3125 C70.37336182 2.29509766 71.05922363 2.27769531 71.76586914 2.25976562 C79.48836724 2.26733763 84.53752375 5.14790534 90 10.375 C90.95132813 11.26960938 91.90265625 12.16421875 92.8828125 13.0859375 C93.76710938 13.92382812 94.65140625 14.76171875 95.5625 15.625 C102.18346325 21.57088465 108.99620642 27.30888016 115.76318359 33.08740234 C116.9233226 34.07879386 118.08257095 35.07122904 119.24072266 36.06494141 C125.24840376 41.21928953 131.31675793 46.2608761 137.5625 51.125 C155.00044739 64.75733474 166.67610138 78.91618819 178.5625 97.625 C179.07796387 98.43066406 179.59342773 99.23632812 180.12451172 100.06640625 C181.54715173 102.29064472 182.96276112 104.51914652 184.375 106.75 C185.01477783 107.75281006 185.01477783 107.75281006 185.66748047 108.77587891 C188.5625 113.39213018 188.5625 113.39213018 188.5625 115.625 C202.05970108 115.43048201 214.73372323 115.19216089 227.5625 110.625 C228.18415039 110.40682617 228.80580078 110.18865234 229.44628906 109.96386719 C239.51757606 106.37314611 248.6607376 101.55950827 257.5625 95.625 C255.92802455 108.26948368 241.23892237 120.86431762 231.7109375 128.390625 C211.04219272 143.05876646 187.86600727 148.58981668 162.65332031 145.23828125 C156.17896691 144.10995197 149.86658107 142.46846087 143.5625 140.625 C142.70092285 140.37331055 141.8393457 140.12162109 140.95166016 139.86230469 C126.41385773 135.5017867 112.4837533 129.63227799 98.5625 123.625 C103.89680702 132.60880434 110.03079296 139.96054762 119.5625 144.625 C119.5625 145.285 119.5625 145.945 119.5625 146.625 C57.95773709 148.10151534 57.95773709 148.10151534 38.5625 129.625 C34.5625 125.225 34.5625 125.225 34.5625 122.625 C19.33057906 134.92922705 11.57875294 151.088546 6.5625 169.625 C6.29312622 170.52702148 6.29312622 170.52702148 6.01831055 171.44726562 C0.84686542 196.15497348 7.62456248 223.30014501 21.0625 244.1875 C31.17445493 259.31240279 42.7243864 271.65948158 58.5625 280.625 C59.1719043 280.97159668 59.78130859 281.31819336 60.40917969 281.67529297 C77.0006921 290.92708185 96.1476003 297.9844368 115.296875 297.890625 C116.17853333 297.89253845 117.06019165 297.8944519 117.96856689 297.89642334 C119.81384571 297.89777286 121.65913443 297.8941636 123.50439453 297.88574219 C126.31955238 297.87497302 129.13407969 297.88570596 131.94921875 297.8984375 C133.75260556 297.89711669 135.55599199 297.89455592 137.359375 297.890625 C138.61110504 297.89669769 138.61110504 297.89669769 139.88812256 297.90289307 C144.53475906 297.86572377 148.17615932 297.32170739 152.5625 295.625 C154.14232447 295.22868829 155.7284351 294.85644278 157.3203125 294.51171875 C167.17524937 292.3155228 176.40930127 289.98651114 185.5625 285.625 C186.85049419 285.05357551 188.13964311 284.48474953 189.4296875 283.91796875 C203.399343 277.68485312 216.98906626 270.20711762 228.6171875 260.18359375 C230.52727633 258.65322137 232.36603348 257.68041158 234.5625 256.625 C231.1700698 263.08549225 227.34874396 269.01961887 223 274.875 C222.08081787 276.11552124 222.08081787 276.11552124 221.14306641 277.38110352 C216.15135659 284.02230958 210.84212731 290.20391777 205.02587891 296.13085938 C203.53689802 297.65114016 202.07079644 299.19131494 200.60546875 300.734375 C181.1001058 321.03019318 156.19455005 334.94960465 129.5625 343.625 C128.39376343 344.0106311 128.39376343 344.0106311 127.20141602 344.40405273 C86.84403126 357.1732402 40.185686 351.88606219 2.68334961 332.73950195 C-13.23684704 324.3192283 -27.27854035 313.91876811 -40.4375 301.625 C-41.30117188 300.82707031 -42.16484375 300.02914063 -43.0546875 299.20703125 C-62.69883786 280.3885046 -77.17514523 255.50119288 -85.4375 229.625 C-85.76234375 228.64402344 -86.0871875 227.66304687 -86.421875 226.65234375 C-94.50114649 200.58115614 -96.50751272 171.53752035 -91.4375 144.625 C-91.24285156 143.49578125 -91.04820312 142.3665625 -90.84765625 141.203125 C-86.37603046 117.81308243 -76.29862843 94.95383999 -62.4375 75.625 C-61.35082031 74.06652344 -61.35082031 74.06652344 -60.2421875 72.4765625 C-54.09206399 64.00410357 -46.7468984 56.64750214 -39.375 49.25 C-38.59065582 48.46014206 -38.59065582 48.46014206 -37.79046631 47.65432739 C-36.29254139 46.15091073 -34.78682349 44.65586873 -33.27734375 43.1640625 C-32.39425537 42.28959473 -31.51116699 41.41512695 -30.60131836 40.51416016 C-28.4375 38.625 -28.4375 38.625 -26.4375 38.625 C-26.34984375 37.531875 -26.2621875 36.43875 -26.171875 35.3125 C-25.47863 29.80532293 -23.60813508 24.80789024 -21.6875 19.625 C-21.35234375 18.67882812 -21.0171875 17.73265625 -20.671875 16.7578125 C-19.66717186 14.01010163 -18.57872336 11.31856121 -17.4375 8.625 C-16.97041626 7.41384521 -16.97041626 7.41384521 -16.49389648 6.17822266 C-12.99553057 -1.19458964 -7.42453596 -0.38641097 0 0 Z " transform="translate(430.4375,289.375)" style="fill: #176C9F;"/><path d="M0 0 C1.75038574 0.04858154 1.75038574 0.04858154 3.53613281 0.09814453 C22.02231458 0.73391269 22.02231458 0.73391269 30.65234375 3.6796875 C37.49426949 5.90216539 44.62101278 4.53276249 51.625 3.625 C57.65174143 2.85977441 63.61082893 2.38221581 69.6875 2.3125 C70.37336182 2.29509766 71.05922363 2.27769531 71.76586914 2.25976562 C79.48836724 2.26733763 84.53752375 5.14790534 90 10.375 C90.95132813 11.26960938 91.90265625 12.16421875 92.8828125 13.0859375 C93.76710938 13.92382812 94.65140625 14.76171875 95.5625 15.625 C102.18346325 21.57088465 108.99620642 27.30888016 115.76318359 33.08740234 C116.9233226 34.07879386 118.08257095 35.07122904 119.24072266 36.06494141 C125.24840376 41.21928953 131.31675793 46.2608761 137.5625 51.125 C155.00044739 64.75733474 166.67610138 78.91618819 178.5625 97.625 C179.07796387 98.43066406 179.59342773 99.23632812 180.12451172 100.06640625 C181.54715173 102.29064472 182.96276112 104.51914652 184.375 106.75 C185.01477783 107.75281006 185.01477783 107.75281006 185.66748047 108.77587891 C188.5625 113.39213018 188.5625 113.39213018 188.5625 115.625 C202.05970108 115.43048201 214.73372323 115.19216089 227.5625 110.625 C228.18415039 110.40682617 228.80580078 110.18865234 229.44628906 109.96386719 C239.51757606 106.37314611 248.6607376 101.55950827 257.5625 95.625 C255.92802455 108.26948368 241.23892237 120.86431762 231.7109375 128.390625 C211.04219272 143.05876646 187.86600727 148.58981668 162.65332031 145.23828125 C156.17896691 144.10995197 149.86658107 142.46846087 143.5625 140.625 C142.70092285 140.37331055 141.8393457 140.12162109 140.95166016 139.86230469 C126.41385773 135.5017867 112.4837533 129.63227799 98.5625 123.625 C103.89680702 132.60880434 110.03079296 139.96054762 119.5625 144.625 C119.5625 145.285 119.5625 145.945 119.5625 146.625 C57.95773709 148.10151534 57.95773709 148.10151534 38.5625 129.625 C34.5625 125.225 34.5625 125.225 34.5625 122.625 C32.2525 124.275 29.9425 125.925 27.5625 127.625 C27.5625 126.965 27.5625 126.305 27.5625 125.625 C26.510625 125.25375 26.510625 125.25375 25.4375 124.875 C18.95280243 122.05556628 13.57333291 117.35140174 8.0625 113 C-1.63715298 105.40269592 -11.4970417 98.18123086 -21.8125 91.4375 C-35.37639653 82.461392 -35.37639653 82.461392 -37.4375 76.625 C-37.87990716 71.27123224 -36.83548787 66.83264807 -35.125 61.8125 C-34.66501637 60.40375948 -34.20538047 58.99490538 -33.74609375 57.5859375 C-33.52163574 56.90885742 -33.29717773 56.23177734 -33.06591797 55.53417969 C-32.23601987 53.01288864 -31.45440724 50.47859565 -30.6875 47.9375 C-30.46578125 47.21175781 -30.2440625 46.48601562 -30.015625 45.73828125 C-29.37178095 43.38477024 -28.89084303 41.02184141 -28.4375 38.625 C-27.7775 38.625 -27.1175 38.625 -26.4375 38.625 C-26.34984375 37.531875 -26.2621875 36.43875 -26.171875 35.3125 C-25.47863 29.80532293 -23.60813508 24.80789024 -21.6875 19.625 C-21.35234375 18.67882812 -21.0171875 17.73265625 -20.671875 16.7578125 C-19.66717186 14.01010163 -18.57872336 11.31856121 -17.4375 8.625 C-17.12611084 7.81756348 -16.81472168 7.01012695 -16.49389648 6.17822266 C-12.99553057 -1.19458964 -7.42453596 -0.38641097 0 0 Z " transform="translate(430.4375,289.375)" style="fill: #1B7DB5;"/><path d="M0 0 C6.29836661 1.52268204 12.54086372 3.14439606 18.75 5 C35.100359 9.67153114 50.56654629 11.8761207 67.44921875 8.4375 C70.01797227 7.99691747 72.39933942 7.925026 75 8 C81.98670409 31.11324751 80.80137618 56.25029015 70 78 C60.51841133 93.8230383 45.29738808 106.62490471 27.125 111.1875 C9.62927923 114.63317676 -6.23402423 110.81252074 -21.05517578 101.28100586 C-34.16103077 92.35399289 -47.48452332 80.25855223 -53 65 C-52.15179688 64.39414062 -51.30359375 63.78828125 -50.4296875 63.1640625 C-49.86967041 62.76396973 -49.30965332 62.36387695 -48.73266602 61.95166016 C-47.48085711 61.05767546 -46.2287346 60.16412975 -44.97631836 59.27099609 C-41.7099119 56.94070138 -38.44861286 54.60397169 -35.19921875 52.25 C-34.58900879 51.80962402 -33.97879883 51.36924805 -33.35009766 50.91552734 C-32.19283477 50.08006003 -31.03743205 49.24200746 -29.88427734 48.40087891 C-26.05230952 45.64080625 -22.12451442 43.28386513 -18 41 C-17.75765625 41.81082031 -17.5153125 42.62164062 -17.265625 43.45703125 C-13.25193173 60.07707688 -13.25193173 60.07707688 -2.5 72.3125 C3.46141304 75.03739962 10.05329452 75.05597471 16.3359375 73.375 C22.56267247 70.70299113 26.24089572 65.62701914 29.13671875 59.65625 C31.9664577 50.94936091 30.3781997 41.94544784 26.53515625 33.86328125 C20.42325723 22.46373422 12.7758468 12.68115727 2.8125 4.375 C1.884375 3.59125 0.95625 2.8075 0 2 C0 1.34 0 0.68 0 0 Z " transform="translate(559,432)" style="fill: #15659A;"/><path d="M0 0 C7.59 0 15.18 0 23 0 C23.33 14.19 23.66 28.38 24 43 C32.17524185 35.70141347 32.17524185 35.70141347 38.5625 27.9375 C42.67340826 23.63482926 45.31026337 22.68699254 51.2578125 22.3046875 C57.5236733 22.19826004 63.75602715 22.48595963 70 23 C66.10631001 27.60477167 62.11509172 32.09259028 58 36.5 C53.89600208 40.91807939 49.87194094 45.37518165 46 50 C47.38210173 52.95396856 48.98717524 55.48187557 50.94140625 58.08984375 C51.52132324 58.86851807 52.10124023 59.64719238 52.69873047 60.44946289 C53.31377441 61.27051514 53.92881836 62.09156738 54.5625 62.9375 C58.89324214 68.77077868 63.21397726 74.60645853 67.375 80.5625 C68.08398438 81.57441406 68.79296875 82.58632813 69.5234375 83.62890625 C71 86 71 86 71 88 C49.8187544 90.37786004 49.8187544 90.37786004 43.81689453 86.640625 C40.39808691 83.25328757 38.1524773 79.2755701 36.04101562 74.98388672 C34.34496923 71.75169323 32.17574519 68.92508401 30 66 C27.50638429 67.20381448 25.31856917 68.45428722 23 70 C22.49468134 71.92441415 22.49468134 71.92441415 22.48828125 74.1328125 C22.45516846 74.85871582 22.42205566 75.58461914 22.38793945 76.33251953 C22.35059692 77.71479736 22.35059692 77.71479736 22.3125 79.125 C22.209375 82.05375 22.10625 84.9825 22 88 C14.74 88 7.48 88 0 88 C0 58.96 0 29.92 0 0 Z " transform="translate(474,699)" style="fill: #135B94;"/><path d="M0 0 C7.59 0 15.18 0 23 0 C23.03738281 2.82949219 23.07476562 5.65898438 23.11328125 8.57421875 C23.15952189 11.32128533 23.21074631 14.06821702 23.26245117 16.81518555 C23.29565962 18.72102631 23.32370425 20.62696446 23.34643555 22.53295898 C23.38005668 25.27630015 23.43237595 28.01875222 23.48828125 30.76171875 C23.49467117 31.61086349 23.5010611 32.46000824 23.50764465 33.33488464 C23.62345333 38.01805084 23.94117188 41.21672446 27 45 C30.70126859 47.46751239 32.62223532 47.30721156 37 47 C41.21222462 45.39853813 42.38744335 43.22119974 44.21008301 39.26074219 C45.50620488 35.5512418 45.60313545 32.02543625 45.609375 28.125 C45.62591125 27.31506592 45.64244751 26.50513184 45.65948486 25.6706543 C45.70761175 23.11368971 45.72925586 20.55731817 45.75 18 C45.7781894 16.25387697 45.80812095 14.50778116 45.83984375 12.76171875 C45.91660465 8.50754902 45.95744805 4.25519549 46 0 C53.26 0 60.52 0 68 0 C68 21.78 68 43.56 68 66 C61.4 66 54.8 66 48 66 C48 63.69 48 61.38 48 59 C47.34 59 46.68 59 46 59 C45.7215625 59.86625 45.7215625 59.86625 45.4375 60.75 C42.96805138 64.61522393 38.97217769 66.51019929 34.625 67.58984375 C25.36447273 69.03680114 17.80449154 68.49101726 10 63 C4.17777349 58.05612663 0.63688002 50.88651515 -0.34729004 43.33538818 C-0.4583483 40.53500663 -0.45122198 37.76279424 -0.390625 34.9609375 C-0.38496521 33.95406891 -0.37930542 32.94720032 -0.37347412 31.90982056 C-0.35129392 28.73103898 -0.3011328 25.55343406 -0.25 22.375 C-0.22991125 20.2044435 -0.21166468 18.03386912 -0.1953125 15.86328125 C-0.15491093 10.57471584 -0.07658553 5.28865645 0 0 Z " transform="translate(324,721)" style="fill: #165C95;"/><path d="M0 0 C1.16161779 2.86578759 0.9946154 4.01630163 0.00390625 7.015625 C-0.47175781 8.08296875 -0.94742188 9.1503125 -1.4375 10.25 C-1.91058594 11.32765625 -2.38367188 12.4053125 -2.87109375 13.515625 C-3.24363281 14.33546875 -3.61617188 15.1553125 -4 16 C-5.41681634 15.68817931 -6.83344651 15.37551263 -8.25 15.0625 C-9.03890625 14.88847656 -9.8278125 14.71445312 -10.640625 14.53515625 C-12.06443975 14.21220489 -13.48234181 13.8578993 -14.8828125 13.4453125 C-17.81328213 12.82894066 -20.63327812 12.82938331 -23.625 12.8125 C-24.77226562 12.79832031 -25.91953125 12.78414062 -27.1015625 12.76953125 C-30.12725901 12.69470342 -30.12725901 12.69470342 -32 15 C-32.64767793 17.57061311 -32.64767793 17.57061311 -33 20 C-32.28980713 20.12004395 -31.57961426 20.24008789 -30.84790039 20.36376953 C-27.58184872 20.92879727 -24.32259841 21.52661596 -21.0625 22.125 C-19.94552734 22.31320312 -18.82855469 22.50140625 -17.67773438 22.6953125 C-9.29674597 24.26828393 -2.20291262 26.72944983 3.0625 33.75 C4.79093354 39.74190294 5.00642056 45.46992875 2.4375 51.25 C-1.89008094 58.74004393 -7.87772291 61.81202226 -16 64 C-16.99 64.33 -17.98 64.66 -19 65 C-22.05839724 65.22692934 -25.12153321 65.18516135 -28.1875 65.1875 C-29.4259668 65.20586914 -29.4259668 65.20586914 -30.68945312 65.22460938 C-37.94338892 65.24175816 -44.1363049 63.73439519 -51 61.375 C-51.763125 61.11460937 -52.52625 60.85421875 -53.3125 60.5859375 C-53.869375 60.39257812 -54.42625 60.19921875 -55 60 C-56.40843182 55.45422306 -55.4862514 52.95728968 -53.5625 48.6875 C-53.08941406 47.61886719 -52.61632812 46.55023437 -52.12890625 45.44921875 C-51.57009766 44.23685547 -51.57009766 44.23685547 -51 43 C-50.39671875 43.20496094 -49.7934375 43.40992188 -49.171875 43.62109375 C-48.37265625 43.89050781 -47.5734375 44.15992188 -46.75 44.4375 C-45.96109375 44.70433594 -45.1721875 44.97117187 -44.359375 45.24609375 C-40.69887764 46.41575599 -37.52970148 47.12521215 -33.671875 47.09765625 C-32.87265625 47.09443359 -32.0734375 47.09121094 -31.25 47.08789062 C-30.425 47.07951172 -29.6 47.07113281 -28.75 47.0625 C-27.90953125 47.05798828 -27.0690625 47.05347656 -26.203125 47.04882812 C-24.13538599 47.03707961 -22.06768376 47.01914522 -20 47 C-19.67 45.35 -19.34 43.7 -19 42 C-20.95786872 41.53968604 -22.91632552 41.08187326 -24.875 40.625 C-26.06222656 40.34785156 -27.24945313 40.07070313 -28.47265625 39.78515625 C-31.41425957 39.13038076 -34.34445293 38.57646759 -37.3125 38.0625 C-43.58407286 36.80818543 -48.39178269 35.02058073 -52.4375 29.9375 C-55.56361253 24.06040844 -55.60820649 18.54256413 -55 12 C-52.08151217 5.69606629 -46.4495723 0.76232925 -40 -1.8125 C-26.33744234 -6.24500916 -13.43658604 -3.56610814 0 0 Z " transform="translate(460,724)" style="fill: #155F97;"/><path d="M0 0 C3.64588169 -0.02682987 7.29156846 -0.04675569 10.9375 -0.0625 C11.97841797 -0.07087891 13.01933594 -0.07925781 14.09179688 -0.08789062 C15.08115234 -0.09111328 16.07050781 -0.09433594 17.08984375 -0.09765625 C18.46450806 -0.10551147 18.46450806 -0.10551147 19.86694336 -0.11352539 C22 0 22 0 23 1 C23.07319621 3.69654854 23.09242537 6.36691458 23.0625 9.0625 C23.05798828 9.82111328 23.05347656 10.57972656 23.04882812 11.36132812 C23.0370068 13.24091871 23.01907078 15.12046899 23 17 C27.62 17 32.24 17 37 17 C37 22.61 37 28.22 37 34 C32.38 34 27.76 34 23 34 C23.08679645 38.41763979 23.19367254 42.83320557 23.3125 47.25 C23.34633789 49.13138672 23.34633789 49.13138672 23.38085938 51.05078125 C23.41630859 52.25605469 23.45175781 53.46132813 23.48828125 54.703125 C23.51446533 55.81333008 23.54064941 56.92353516 23.56762695 58.06738281 C24.04172988 61.28303748 24.72258872 62.71162646 27 65 C29.50880616 65.48261667 29.50880616 65.48261667 32.1875 65.25 C33.08855469 65.21390625 33.98960937 65.1778125 34.91796875 65.140625 C35.60503906 65.09421875 36.29210937 65.0478125 37 65 C39.23891142 70.45126259 40.47606294 75.13190493 41 81 C31.03981089 84.21337721 19.56021215 84.8113486 10 80 C5.16378806 77.09827283 2.95960185 73.15836369 1 68 C0.0148076 64.00614414 -0.11574837 60.27487953 -0.09765625 56.16796875 C-0.09443359 54.87568359 -0.09121094 53.58339844 -0.08789062 52.25195312 C-0.07953665 50.89713474 -0.07107172 49.54231703 -0.0625 48.1875 C-0.05748 46.81315265 -0.05291797 45.43880355 -0.04882812 44.06445312 C-0.03705668 40.70959076 -0.02061283 37.35481779 0 34 C-3.3 34 -6.6 34 -10 34 C-10 28.39 -10 22.78 -10 17 C-6.7 17 -3.4 17 0 17 C0 11.39 0 5.78 0 0 Z " transform="translate(273,706)" style="fill: #1B5F95;"/><path d="M0 0 C-1.18542953 7.51951568 -3.39710835 14.51287257 -5.87890625 21.6796875 C-7.9155305 27.71150148 -9.45141752 33.03668923 -6.5 39.0625 C-3.36311775 42.74833664 0.0245682 45.27088524 4 48 C5.93762473 49.33315206 7.8751114 50.6665048 9.8125 52 C10.3497168 52.36899414 10.88693359 52.73798828 11.44042969 53.11816406 C21.72007723 60.21781865 31.90888193 67.56697947 41.5625 75.5 C46.07661869 79.19409361 50.92120598 82.1472306 56 85 C55.40229271 88.38451752 54.24729958 90.1228734 52 92.6875 C46.53964375 99.43064264 42.901217 107.29487527 39 115 C38.67 115 38.34 115 38 115 C38 111.04 38 107.08 38 103 C36.783125 102.608125 35.56625 102.21625 34.3125 101.8125 C23.82829999 98.28510561 13.938161 94.09515605 4.1015625 89.0703125 C-2.18115228 85.87002633 -8.59476693 82.94493475 -15 80 C-14.03423701 72.92328847 -11.86862633 66.73770641 -8.94482422 60.26733398 C-7.75786722 57.52444221 -6.99524393 55.32626619 -7.0390625 52.3203125 C-8.30629307 49.2604143 -10.02627744 47.79506522 -12.5625 45.6875 C-13.38878906 44.99011719 -14.21507812 44.29273438 -15.06640625 43.57421875 C-15.70449219 43.05472656 -16.34257812 42.53523438 -17 42 C-14.94764938 32.67991363 -12.67988247 23.42862668 -10.0625 14.25 C-9.72001221 12.9830127 -9.72001221 12.9830127 -9.37060547 11.69042969 C-8.00824311 7.04060736 -5.88217153 0 0 0 Z " transform="translate(402,330)" style="fill: #063B5B;"/><path d="M0 0 C-1.21823614 10.14590693 -12.66292577 19.4585421 -20.22363281 25.64599609 C-40.76296251 41.30173036 -65.39865765 47.00440805 -90.90917969 43.61328125 C-108.21349559 40.59754129 -127.38199286 35.20867698 -143 27 C-144 25 -144 25 -143.47094727 22.93701172 C-143.17244873 22.10959473 -142.8739502 21.28217773 -142.56640625 20.4296875 C-142.24736328 19.53378906 -141.92832031 18.63789063 -141.59960938 17.71484375 C-141.25736328 16.77769531 -140.91511719 15.84054687 -140.5625 14.875 C-140.05493164 13.45767578 -140.05493164 13.45767578 -139.53710938 12.01171875 C-138.6981094 9.67197234 -137.85215708 7.33497991 -137 5 C-133.02508348 5.86936206 -129.90047403 7.68220131 -126.4375 9.75 C-103.61294266 22.95094516 -73.52390113 32.02570029 -47.1875 25.3125 C-44.78013184 24.5784837 -42.38336949 23.80854885 -40 23 C-38.87851562 22.62617188 -37.75703125 22.25234375 -36.6015625 21.8671875 C-26.5574849 18.26467986 -8.35066912 0 0 0 Z " transform="translate(684,391)" style="fill: #125280;"/><path d="M0 0 C2.73828125 2.03515625 2.73828125 2.03515625 4.6875 3.9375 C4.6875 6.9375 4.6875 6.9375 3.078125 8.76171875 C2.01851562 9.68404297 2.01851562 9.68404297 0.9375 10.625 C0.24140625 11.24761719 -0.4546875 11.87023437 -1.171875 12.51171875 C-3.3125 13.9375 -3.3125 13.9375 -7.3125 13.9375 C-9.05859375 12.87890625 -9.05859375 12.87890625 -10.75 11.5 C-15.06390002 7.98682388 -19.3806611 7.78814494 -24.8125 7.75 C-25.7303125 7.73582031 -26.648125 7.72164062 -27.59375 7.70703125 C-31.42396131 8.0317187 -34.18554187 8.90466704 -37.04296875 11.5234375 C-37.52378906 12.11382813 -38.00460937 12.70421875 -38.5 13.3125 C-38.98855469 13.89773438 -39.47710938 14.48296875 -39.98046875 15.0859375 C-44.05807104 20.75392426 -44.13541192 26.10229285 -43.3125 32.9375 C-41.38664383 38.77873316 -38.73864639 43.73746495 -33.3125 46.9375 C-26.98988047 48.91416478 -19.81454096 49.03710135 -13.8125 46.125 C-11.78226386 45.00234824 -10.37080289 43.99981865 -8.78125 42.30078125 C-7.3125 40.9375 -7.3125 40.9375 -4.3125 40.9375 C-0.92498087 43.97758127 1.91138067 47.33882679 4.6875 50.9375 C3.44553878 52.09204162 2.19357155 53.23582562 0.9375 54.375 C0.24140625 55.01308594 -0.4546875 55.65117188 -1.171875 56.30859375 C-3.30042725 57.92831325 -4.70273405 58.52017256 -7.3125 58.9375 C-7.3125 59.5975 -7.3125 60.2575 -7.3125 60.9375 C-17.47992824 65.21852242 -27.90279001 65.55170284 -38.3125 61.75 C-47.37713009 57.76688837 -52.45249005 53.64910285 -57.3125 44.9375 C-57.72886719 44.19757812 -58.14523437 43.45765625 -58.57421875 42.6953125 C-62.51649985 34.47876874 -63.05136245 23.23674915 -60.25 14.5 C-55.7835201 5.11212096 -48.25112517 -2.24085937 -38.61328125 -6.16015625 C-24.91475254 -10.36155949 -11.7692566 -8.20373085 0 0 Z " transform="translate(646.3125,725.0625)" style="fill: #F38134;"/><path d="M0 0 C5.61 0 11.22 0 17 0 C17 18.15 17 36.3 17 55 C28.55 55 40.1 55 52 55 C52 59.29 52 63.58 52 68 C34.84 68 17.68 68 0 68 C0 45.56 0 23.12 0 0 Z " transform="translate(662,719)" style="fill: #F07E33;"/><path d="M0 0 C0.66 0 1.32 0 2 0 C2.06993164 0.60360352 2.13986328 1.20720703 2.21191406 1.82910156 C4.71951944 26.44747318 4.71951944 26.44747318 18.4375 46.25 C30.28317587 54.13979154 42.41813616 54.60184509 56.27636719 54.5480957 C67.16087436 54.60439488 67.16087436 54.60439488 72 59 C72.65226563 59.53882813 73.30453125 60.07765625 73.9765625 60.6328125 C75.08097482 61.63254119 76.18513914 62.63254392 77.2890625 63.6328125 C79.09734895 65.07779025 80.90104932 66.03759903 83 67 C83 67.66 83 68.32 83 69 C25.44981929 70.37933693 25.44981929 70.37933693 3.67578125 53.75 C-0.95907315 48.90987232 -3.33596549 46.11818309 -3.33984375 39.296875 C-3.23423783 37.11301808 -3.09873869 34.93045539 -2.9375 32.75 C-2.87312744 31.60934082 -2.80875488 30.46868164 -2.74243164 29.29345703 C-2.14948536 19.49784739 -1.20842425 9.73778768 0 0 Z " transform="translate(467,367)" style="fill: #0D4C74;"/><path d="M0 0 C1.75038574 0.04858154 1.75038574 0.04858154 3.53613281 0.09814453 C13.89863558 0.4545269 23.69523111 1.3091698 33.5625 4.625 C35.88944964 5.00031446 38.22226685 5.34417202 40.5625 5.625 C40.5625 6.615 40.5625 7.605 40.5625 8.625 C41.87006171 9.98361618 43.20768478 11.31350037 44.5625 12.625 C45.67766929 14.27816665 46.74086287 15.96755676 47.75 17.6875 C48.25917969 18.54472656 48.76835937 19.40195312 49.29296875 20.28515625 C51.67987962 24.68441658 52.17705701 28.70854388 51.5625 33.625 C50.0625 35.625 50.0625 35.625 48.5625 36.625 C44.66500822 35.11124203 43.0065554 32.82354503 40.5625 29.5 C32.66471486 19.63746308 21.91598022 12.89995086 9.26269531 11.34179688 C6.71468331 11.10537315 4.18201318 10.97027128 1.625 10.875 C0.80765381 10.82279297 -0.00969238 10.77058594 -0.85180664 10.71679688 C-3.28994062 10.70269051 -5.13391518 10.81702201 -7.4375 11.625 C-11.39961494 15.60782073 -13.21468122 21.13270858 -14.9375 26.375 C-16.8083841 31.87072204 -18.89149151 37.19196458 -21.18359375 42.5234375 C-22.11062087 44.81645785 -22.94508564 47.07132892 -23.72265625 49.4140625 C-23.93664062 50.05214844 -24.150625 50.69023437 -24.37109375 51.34765625 C-24.96939292 53.15741835 -25.54964752 54.97311645 -26.12890625 56.7890625 C-27.4375 59.625 -27.4375 59.625 -29.46484375 60.9609375 C-30.11582031 61.18007813 -30.76679688 61.39921875 -31.4375 61.625 C-32.4275 62.12 -32.4275 62.12 -33.4375 62.625 C-32.96491572 56.76495494 -31.98252106 51.57276444 -30.15625 45.984375 C-29.41429398 43.54882371 -28.89894203 41.1274356 -28.4375 38.625 C-27.7775 38.625 -27.1175 38.625 -26.4375 38.625 C-26.34984375 37.531875 -26.2621875 36.43875 -26.171875 35.3125 C-25.47863 29.80532293 -23.60813508 24.80789024 -21.6875 19.625 C-21.35234375 18.67882812 -21.0171875 17.73265625 -20.671875 16.7578125 C-19.66717186 14.01010163 -18.57872336 11.31856121 -17.4375 8.625 C-17.12611084 7.81756348 -16.81472168 7.01012695 -16.49389648 6.17822266 C-12.99553057 -1.19458964 -7.42453596 -0.38641097 0 0 Z " transform="translate(430.4375,289.375)" style="fill: #34A9E4;"/><path d="M0 0 C16 0 16 0 17 1 C17.09417773 3.08619022 17.11742878 5.17560477 17.11352539 7.26391602 C17.11367142 7.91755127 17.11381744 8.57118652 17.1139679 9.24462891 C17.11326883 11.41442128 17.10547678 13.58412879 17.09765625 15.75390625 C17.09579205 17.25463311 17.09436816 18.75536057 17.09336853 20.25608826 C17.08954352 24.21318226 17.0797134 28.17023978 17.06866455 32.12731934 C17.05845006 36.16234849 17.05387083 40.19738353 17.04882812 44.23242188 C17.0380911 52.15496656 17.02049445 60.07747454 17 68 C11.39 68 5.78 68 0 68 C0 45.56 0 23.12 0 0 Z " transform="translate(724,719)" style="fill: #ED7B2D;"/><path d="M0 0 C2.99553446 1.31129822 3.82633393 2.32471868 6 5 C7.40363492 8.95569842 7.43322294 11.91694265 5.875 15.8125 C2.69324644 19.52454582 0.34712075 20.88183151 -4.5625 21.3125 C-9.02098845 20.90718287 -10.85770667 20.34627428 -13.75 16.9375 C-15.48414332 12.86226319 -15.8042116 9.36008841 -15 5 C-11.38317685 -0.90747781 -6.36948891 -1.24133809 0 0 Z " transform="translate(737,691)" style="fill: #F27C2E;"/><path d="M0 0 C8.58 0 17.16 0 26 0 C26 4.29 26 8.58 26 13 C17.42 13 8.84 13 0 13 C0 8.71 0 4.42 0 0 Z " transform="translate(550,749)" style="fill: #EE8643;"/><path d="M0 0 C0.66 0.33 1.32 0.66 2 1 C-0.71436492 4.69153629 -3.66556303 7.50661474 -7.16015625 10.41015625 C-8.96099614 11.96629603 -10.59966799 13.5988459 -12.25 15.3125 C-19.45495436 22.6305366 -27.86885333 28.75608243 -36 35 C-36.33 33.68 -36.66 32.36 -37 31 C-37.94875 31.185625 -38.8975 31.37125 -39.875 31.5625 C-43 32 -43 32 -45 31 C-45.433125 31.433125 -45.86625 31.86625 -46.3125 32.3125 C-46.869375 32.869375 -47.42625 33.42625 -48 34 C-48.45375 34.53625 -48.9075 35.0725 -49.375 35.625 C-51.48059676 37.4066588 -53.30492384 37.63580052 -56 38 C-55.67 37.01 -55.34 36.02 -55 35 C-55.99 34.67 -56.98 34.34 -58 34 C-55.51649539 32.34433026 -53.51233286 31.31254307 -50.78125 30.22265625 C-32.96377771 22.95426154 -13.50288994 14.21356836 0 0 Z " transform="translate(663,546)" style="fill: #37A2DD;"/><path d="M0 0 C1.32 0 2.64 0 4 0 C4 1.32 4 2.64 4 4 C9.28 4 14.56 4 20 4 C20 2.68 20 1.36 20 0 C20.66 0 21.32 0 22 0 C22 11.88 22 23.76 22 36 C21.67 36 21.34 36 21 36 C20.67 26.43 20.34 16.86 20 7 C14.72 6.34 9.44 5.68 4 5 C4.33 20.51 4.66 36.02 5 52 C4.34 52 3.68 52 3 52 C-0.11422047 46.0265875 -0.401891 41.14277176 -0.29296875 34.47265625 C-0.28872391 33.48373886 -0.28447906 32.49482147 -0.28010559 31.47593689 C-0.26340129 28.33783991 -0.22576415 25.20040072 -0.1875 22.0625 C-0.17244251 19.92644161 -0.15875597 17.79037309 -0.14648438 15.65429688 C-0.11352493 10.43597598 -0.06340838 5.218035 0 0 Z " transform="translate(324,722)" style="fill: #0C5281;"/><path d="M0 0 C0.495 1.485 0.495 1.485 1 3 C-0.9375 5.6875 -0.9375 5.6875 -3 8 C-3 7.34 -3 6.68 -3 6 C-3.88300781 6.71285156 -4.76601563 7.42570312 -5.67578125 8.16015625 C-25.29770748 23.87417471 -25.29770748 23.87417471 -33 25 C-33 24.34 -33 23.68 -33 23 C-37.28159535 21.38250843 -40.38177856 20.88695964 -44.9375 21.4375 C-52.33381997 22.3258848 -59.60536036 21.60307601 -67 21 C-67 20.67 -67 20.34 -67 20 C-66.38181396 19.9906543 -65.76362793 19.98130859 -65.12670898 19.97167969 C-52.52994361 19.73318872 -40.97370931 19.21969105 -29 15 C-28.37689941 14.78182617 -27.75379883 14.56365234 -27.11181641 14.33886719 C-17.80006961 11.01810805 -7.08662084 7.08662084 0 0 Z " transform="translate(687,385)" style="fill: #2E8ECE;"/><path d="M0 0 C13.43478261 0.43478261 13.43478261 0.43478261 18 5 C20.18914528 9.08472701 21 12.34964859 21 17 C9.35406219 16.81243731 9.35406219 16.81243731 4.875 14.125 C2.20393135 9.67321892 1.08712197 5.0467207 0 0 Z " transform="translate(513,341)" style="fill: #EEF5F9;"/><path d="M0 0 C16 0 16 0 17 1 C17.09417773 3.08619022 17.11742878 5.17560477 17.11352539 7.26391602 C17.11367142 7.91755127 17.11381744 8.57118652 17.1139679 9.24462891 C17.11326883 11.41442128 17.10547678 13.58412879 17.09765625 15.75390625 C17.09579205 17.25463311 17.09436816 18.75536057 17.09336853 20.25608826 C17.08954352 24.21318226 17.0797134 28.17023978 17.06866455 32.12731934 C17.05845006 36.16234849 17.05387083 40.19738353 17.04882812 44.23242188 C17.0380911 52.15496656 17.02049445 60.07747454 17 68 C11.39 68 5.78 68 0 68 C0 45.56 0 23.12 0 0 Z M1 1 C1 22.78 1 44.56 1 67 C5.95 67 10.9 67 16 67 C15.67 45.55 15.34 24.1 15 2 C9.37896557 0.7058258 9.37896557 0.7058258 1 1 Z " transform="translate(724,719)" style="fill: #E68F56;"/><path d="M0 0 C0.33 0.66 0.66 1.32 1 2 C-6.54577755 13.14399555 -14.3115626 24.58447633 -24 34 C-24.66 34 -25.32 34 -26 34 C-26 32.68 -26 31.36 -26 30 C-27.65 30 -29.3 30 -31 30 C-29.49542094 26.23434961 -27.36583433 24.45704323 -24.1875 22 C-19.67047282 18.40542238 -15.35617821 14.67682497 -11.125 10.75 C-10.59028076 10.255 -10.05556152 9.76 -9.50463867 9.25 C-6.26679268 6.23267429 -3.11221725 3.14666984 0 0 Z " transform="translate(660,551)" style="fill: #165B93;"/><path d="M0 0 C0.495 2.97 0.495 2.97 1 6 C-7.71708984 8.72409058 -15.91227489 9.15034839 -25 9 C-25.33 9.66 -25.66 10.32 -26 11 C-27.98 10.01 -29.96 9.02 -32 8 C-32 7.34 -32 6.68 -32 6 C-33.32 5.67 -34.64 5.34 -36 5 C-35.67 4.34 -35.34 3.68 -35 3 C-32.56323242 2.60522461 -32.56323242 2.60522461 -29.35546875 2.40234375 C-28.20369141 2.32306641 -27.05191406 2.24378906 -25.86523438 2.16210938 C-24.65158203 2.08798828 -23.43792969 2.01386719 -22.1875 1.9375 C-19.80579117 1.78297626 -17.42426874 1.62554498 -15.04296875 1.46484375 C-13.98102295 1.399021 -12.91907715 1.33319824 -11.82495117 1.26538086 C-7.73562152 0.88122207 -4.15339148 -0.11537199 0 0 Z " transform="translate(634,440)" style="fill: #0F486D;"/><path d="M0 0 C7.26 0 14.52 0 22 0 C22 18.15 22 36.3 22 55 C21.67 55 21.34 55 21 55 C21 37.18 21 19.36 21 1 C14.4 1 7.8 1 1 1 C1.33 2.98 1.66 4.96 2 7 C2.66 6.34 3.32 5.68 4 5 C5.33616914 15.14056935 6.76019376 26.30969829 3 36 C2.67 36 2.34 36 2 36 C2 34.35 2 32.7 2 31 C1.34 31 0.68 31 0 31 C0 20.77 0 10.54 0 0 Z " transform="translate(370,721)" style="fill: #2C719B;"/><path d="M0 0 C0.33 0.66 0.66 1.32 1 2 C0.00390625 3.69921875 0.00390625 3.69921875 -1.4375 5.6875 C-4.12804293 9.75304415 -4.49989869 12.20097257 -4 17 C-4.66 17.33 -5.32 17.66 -6 18 C-6.66 17.67 -7.32 17.34 -8 17 C-8 17.99 -8 18.98 -8 20 C-9.31129922 21.35500919 -10.64691687 22.68671343 -12 24 C-13.91631033 27.50580805 -15.41762335 31.21347909 -17 34.87890625 C-18 37 -18 37 -20 40 C-20.24107326 42.28648848 -20.24107326 42.28648848 -20.125 44.6875 C-20.10695313 45.49574219 -20.08890625 46.30398438 -20.0703125 47.13671875 C-20.04710937 47.75160156 -20.02390625 48.36648438 -20 49 C-20.598125 49.12375 -21.19625 49.2475 -21.8125 49.375 C-24.26231348 49.95475985 -24.26231348 49.95475985 -27 52 C-25.01442242 44.52608234 -22.24430684 37.70149819 -18.875 30.75 C-18.39216553 29.74727051 -17.90933105 28.74454102 -17.41186523 27.71142578 C-12.53970834 17.7718095 -7.02817609 8.584752 0 0 Z " transform="translate(372,360)" style="fill: #1E8EC6;"/><path d="M0 0 C1.22332031 -0.02835937 2.44664062 -0.05671875 3.70703125 -0.0859375 C4.80402344 -0.11171875 5.90101563 -0.1375 7.03125 -0.1640625 C10.43120123 0.20926548 12.31498205 1.0967633 15.01953125 3.1640625 C15.01953125 3.8240625 15.01953125 4.4840625 15.01953125 5.1640625 C10.46631255 5.18895813 5.91313432 5.20701437 1.35986328 5.21899414 C-0.18604219 5.22399342 -1.731943 5.23079503 -3.27783203 5.23950195 C-5.51205603 5.25176206 -7.74621701 5.25733499 -9.98046875 5.26171875 C-10.66101318 5.26688004 -11.34155762 5.27204132 -12.04272461 5.27735901 C-16.78034596 5.27790112 -21.3002321 4.82450605 -25.98046875 4.1640625 C-25.98046875 3.8340625 -25.98046875 3.5040625 -25.98046875 3.1640625 C-17.66798302 0.00839662 -8.77971878 0.36187261 0 0 Z " transform="translate(534.98046875,430.8359375)" style="fill: #195A86;"/><path d="M0 0 C0.66 0.99 1.32 1.98 2 3 C3.32 2.01 4.64 1.02 6 0 C6.33 0.66 6.66 1.32 7 2 C6.690625 2.825 6.38125 3.65 6.0625 4.5 C4.13705277 10.84264969 4.16600874 16.95415198 7 23 C6.67 23.66 6.34 24.32 6 25 C2.52827945 24.1513572 0.48309162 23.56360689 -1.875 20.8125 C-4.71225279 13.71936801 -2.11673692 6.96759237 0 0 Z " transform="translate(396,348)" style="fill: #2995CE;"/><path d="M0 0 C-10.09877385 3.76564449 -20.22929002 5.36510881 -31 5 C-31 4.01 -31 3.02 -31 2 C-32.65 1.67 -34.3 1.34 -36 1 C-36 0.34 -36 -0.32 -36 -1 C-31.19490042 -1.19214323 -26.38956217 -1.37088308 -21.58349609 -1.53710938 C-19.94794282 -1.59558 -18.31251713 -1.65773919 -16.67724609 -1.72363281 C-14.32933786 -1.8176061 -11.98129322 -1.89838991 -9.6328125 -1.9765625 C-8.89942657 -2.00875885 -8.16604065 -2.0409552 -7.41043091 -2.0741272 C-2.22774341 -2.22774341 -2.22774341 -2.22774341 0 0 Z " transform="translate(559,633)" style="fill: #124C79;"/><path d="M0 0 C4.21830098 0.0441428 8.43516084 0.11395969 12.65258789 0.20751953 C14.08703683 0.23573182 15.52164129 0.25694524 16.95629883 0.27099609 C19.01985302 0.29242449 21.08153706 0.33906467 23.14453125 0.390625 C24.38565674 0.41157227 25.62678223 0.43251953 26.90551758 0.45410156 C30 1 30 1 31.9284668 2.91308594 C33 5 33 5 33 7 C22.1914312 7.61665369 9.89687662 6.94843831 0 2 C0 1.34 0 0.68 0 0 Z " transform="translate(462,631)" style="fill: #195480;"/><path d="M0 0 C1.74023438 0.00966797 1.74023438 0.00966797 3.515625 0.01953125 C4.7221875 0.03628906 5.92875 0.05304687 7.171875 0.0703125 C9.00492187 0.08384766 9.00492187 0.08384766 10.875 0.09765625 C13.89082282 0.12121737 16.90624992 0.15411544 19.921875 0.1953125 C20.251875 1.1853125 20.581875 2.1753125 20.921875 3.1953125 C14.88463465 4.94110435 9.44338187 5.53242595 3.171875 5.5078125 C1.91697266 5.53198242 1.91697266 5.53198242 0.63671875 5.55664062 C-5.45683016 5.56149991 -5.45683016 5.56149991 -8.65625 3.67578125 C-9.36007812 2.94294922 -9.36007812 2.94294922 -10.078125 2.1953125 C-6.64444644 0.10178274 -3.98448907 -0.03906362 0 0 Z " transform="translate(428.078125,783.8046875)" style="fill: #14578B;"/><path d="M0 0 C1.32 0.33 2.64 0.66 4 1 C3.34728444 4.51705958 2.48606976 7.89325077 1.4375 11.3125 C1.16808594 12.19550781 0.89867187 13.07851563 0.62109375 13.98828125 C0.41613281 14.65214844 0.21117187 15.31601562 0 16 C0.66 16.33 1.32 16.66 2 17 C1.60246179 18.46366342 1.18118616 19.9208935 0.75 21.375 C0.51796875 22.18710937 0.2859375 22.99921875 0.046875 23.8359375 C-1.23836141 26.49273216 -2.29478294 26.96195159 -5 28 C-5.66 28.33 -6.32 28.66 -7 29 C-6.52741572 23.13995494 -5.54502106 17.94776444 -3.71875 12.359375 C-2.97679398 9.92382371 -2.46144203 7.5024356 -2 5 C-1.34 5 -0.68 5 0 5 C0 3.35 0 1.7 0 0 Z " transform="translate(404,323)" style="fill: #2DA3DF;"/><path d="M0 0 C7.59 0 15.18 0 23 0 C23 12.54 23 25.08 23 38 C22.67 38 22.34 38 22 38 C22 25.79 22 13.58 22 1 C21.34 1 20.68 1 20 1 C20 2.32 20 3.64 20 5 C14.72 5 9.44 5 4 5 C4 3.68 4 2.36 4 1 C2.68 0.67 1.36 0.34 0 0 Z " transform="translate(324,721)" style="fill: #3E79A3;"/><path d="M0 0 C4.93551478 4.93551478 3.22677485 16.21872461 3.26220703 22.94091797 C3.16841223 30.82790886 1.75477115 38.33332127 0 46 C-0.33 46 -0.66 46 -1 46 C-0.67 30.82 -0.34 15.64 0 0 Z " transform="translate(635,449)" style="fill: #2D89BE;"/><path d="M0 0 C0.66 0.33 1.32 0.66 2 1 C-0.70731282 4.68194544 -3.64716949 7.49495095 -7.13671875 10.38671875 C-9.07545565 12.06533162 -10.84342992 13.84382726 -12.625 15.6875 C-15.20342917 18.3183126 -17.69724082 20.29857861 -21 22 C-21.99 21.34 -22.98 20.68 -24 20 C-24 20.66 -24 21.32 -24 22 C-24.66 21.67 -25.32 21.34 -26 21 C-24.55921752 16.67765257 -21.25032702 15.50467546 -17.5 13.3125 C-11.06139189 9.438155 -5.35166113 5.32192968 0 0 Z " transform="translate(663,546)" style="fill: #3697D2;"/><path d="M0 0 C0.33 0 0.66 0 1 0 C1.02496476 5.47688475 1.04298372 10.95373541 1.05493164 16.43066406 C1.05991956 18.28874286 1.06671228 20.14681782 1.07543945 22.00488281 C1.12139202 32.0495734 1.14210679 42.00302463 0 52 C-0.66 52 -1.32 52 -2 52 C-2.0247204 45.80696911 -2.04286973 39.61396695 -2.05493164 33.42089844 C-2.05996013 31.31412251 -2.06678376 29.20735008 -2.07543945 27.10058594 C-2.08756989 24.07225686 -2.09324317 21.04397394 -2.09765625 18.015625 C-2.10281754 17.07382385 -2.10797882 16.13202271 -2.11329651 15.16168213 C-2.11337204 14.28107117 -2.11344757 13.40046021 -2.11352539 12.49316406 C-2.115746 11.72039124 -2.11796661 10.94761841 -2.12025452 10.15142822 C-1.99847624 7.97273896 -1.59475143 6.09468267 -1 4 C-0.814375 3.2575 -0.62875 2.515 -0.4375 1.75 C-0.293125 1.1725 -0.14875 0.595 0 0 Z " transform="translate(634,446)" style="fill: #1A72AA;"/><path d="M0 0 C7.59 0 15.18 0 23 0 C23.33 14.85 23.66 29.7 24 45 C23.34 45 22.68 45 22 45 C22 30.81 22 16.62 22 2 C18.7 2.33 15.4 2.66 12 3 C8.6171875 2.87890625 8.6171875 2.87890625 5.875 2.5625 C4.94429688 2.46066406 4.01359375 2.35882812 3.0546875 2.25390625 C2.03761719 2.12822266 2.03761719 2.12822266 1 2 C1 4.97 1 7.94 1 11 C0.67 11 0.34 11 0 11 C0 7.37 0 3.74 0 0 Z " transform="translate(474,699)" style="fill: #4F80A9;"/><path d="M0 0 C0.05855764 3.99993747 0.09378299 7.99976308 0.125 12 C0.14175781 13.12535156 0.15851562 14.25070312 0.17578125 15.41015625 C0.21227343 21.65031931 -0.14234011 27.03208475 -2 33 C-2.66 33 -3.32 33 -4 33 C-3.835 32.13375 -3.67 31.2675 -3.5 30.375 C-2.41249469 22.62061428 -2.17359893 14.40813922 -4.1875 6.8125 C-4.455625 5.554375 -4.72375 4.29625 -5 3 C-2.71460674 0 -2.71460674 0 0 0 Z " transform="translate(592,463)" style="fill: #084068;"/><path d="M0 0 C2.41674224 -0.02705308 4.8331794 -0.04686438 7.25 -0.0625 C7.93191406 -0.07087891 8.61382812 -0.07925781 9.31640625 -0.08789062 C12.69342554 -0.10428392 15.77291639 -0.05628768 19 1 C19 1.66 19 2.32 19 3 C17.02 3.33 15.04 3.66 13 4 C13 4.33 13 4.66 13 5 C10.36 5.33 7.72 5.66 5 6 C4.67 7.98 4.34 9.96 4 12 C3.67 12 3.34 12 3 12 C2.67 10.02 2.34 8.04 2 6 C1.01 6.495 1.01 6.495 0 7 C0 4.69 0 2.38 0 0 Z " transform="translate(371,722)" style="fill: #10568F;"/><path d="M0 0 C3.74502433 1.24834144 4.76484276 2.86174026 7.1875 5.9375 C7.90292969 6.83339844 8.61835938 7.72929687 9.35546875 8.65234375 C11 11 11 11 11 13 C9.02 13 7.04 13 5 13 C4.67 12.01 4.34 11.02 4 10 C1.67793475 9.29508733 -0.65593068 8.62787571 -3 8 C-3.33 7.34 -3.66 6.68 -4 6 C-3.34 5.566875 -2.68 5.13375 -2 4.6875 C-1.01 3.8521875 -1.01 3.8521875 0 3 C0 2.01 0 1.02 0 0 Z " transform="translate(466,314)" style="fill: #0D4E7F;"/><path d="M0 0 C0.99 0.99 1.98 1.98 3 3 C3 2.34 3 1.68 3 1 C3.99 1.33 4.98 1.66 6 2 C4.60042311 5.38231081 3.26935579 7.27928642 0 9 C-2.85549606 9.42688224 -5.06041859 9.27996013 -8 9 C-8.99 8.01 -9.98 7.02 -11 6 C-7.37 4.02 -3.74 2.04 0 0 Z " transform="translate(636,565)" style="fill: #47A9DF;"/><path d="M0 0 C0.33 0.66 0.66 1.32 1 2 C0.00390625 3.69921875 0.00390625 3.69921875 -1.4375 5.6875 C-4.12804293 9.75304415 -4.49989869 12.20097257 -4 17 C-4.66 17.33 -5.32 17.66 -6 18 C-6.66 17.67 -7.32 17.34 -8 17 C-8 17.99 -8 18.98 -8 20 C-9.82193842 21.9249647 -11.89235283 23.37535531 -14 25 C-14.33 24.34 -14.66 23.68 -15 23 C-14.27490234 21.30761719 -14.27490234 21.30761719 -13.0859375 19.296875 C-12.65410156 18.56339844 -12.22226562 17.82992188 -11.77734375 17.07421875 C-11.31457031 16.30722656 -10.85179687 15.54023438 -10.375 14.75 C-9.71564453 13.62271484 -9.71564453 13.62271484 -9.04296875 12.47265625 C-6.35498793 7.95590256 -3.47718604 3.94164772 0 0 Z " transform="translate(372,360)" style="fill: #2CA0D6;"/><path d="M0 0 C0.33 0 0.66 0 1 0 C1 5.28 1 10.56 1 16 C5.62 16 10.24 16 15 16 C15 20.62 15 25.24 15 30 C13.68 29.67 12.36 29.34 11 29 C11 26.69 11 24.38 11 22 C11.66 22 12.32 22 13 22 C13 21.01 13 20.02 13 19 C10.43106162 17.71553081 8.23423663 17.67022856 5.375 17.4375 C3.60125 17.293125 1.8275 17.14875 0 17 C0 11.39 0 5.78 0 0 Z " transform="translate(295,707)" style="fill: #2D74A0;"/><path d="M0 0 C0.99140649 11.68443367 1.10709533 23.27901152 1 35 C-0.47949219 33.93994141 -0.47949219 33.93994141 -2 32 C-2.35644531 28.82958984 -2.35644531 28.82958984 -2.328125 24.9609375 C-2.32625183 24.27947662 -2.32437866 23.59801575 -2.32244873 22.89590454 C-2.31573606 21.45854789 -2.30183693 20.02120926 -2.28125 18.58398438 C-2.250016 16.37613077 -2.240271 14.16899041 -2.234375 11.9609375 C-2.15582341 0 -2.15582341 0 0 0 Z " transform="translate(434,472)" style="fill: #0C517C;"/><path d="M0 0 C0.33 0.99 0.66 1.98 1 3 C-0.9375 5.6875 -0.9375 5.6875 -3 8 C-3 7.34 -3 6.68 -3 6 C-6.63 8.97 -10.26 11.94 -14 15 C-14.66 14.67 -15.32 14.34 -16 14 C-16 13.34 -16 12.68 -16 12 C-16.66 11.67 -17.32 11.34 -18 11 C-17.11957031 10.54109375 -16.23914063 10.0821875 -15.33203125 9.609375 C-14.17058594 8.99578125 -13.00914062 8.3821875 -11.8125 7.75 C-10.66394531 7.14671875 -9.51539063 6.5434375 -8.33203125 5.921875 C-5.28265749 4.16303339 -2.67513694 2.27714105 0 0 Z " transform="translate(687,385)" style="fill: #388FCC;"/><path d="M0 0 C1.084021 0.00523682 2.16804199 0.01047363 3.28491211 0.01586914 C5.03964844 0.02070313 5.03964844 0.02070313 6.82983398 0.02563477 C8.67738281 0.03820312 8.67738281 0.03820312 10.56225586 0.05102539 C12.41560547 0.05779297 12.41560547 0.05779297 14.30639648 0.06469727 C17.37089703 0.07652931 20.43530307 0.09301366 23.49975586 0.11352539 C23.16975586 1.10352539 22.83975586 2.09352539 22.49975586 3.11352539 C14.70972915 4.54434662 3.25534747 5.61725313 -3.50024414 1.11352539 C-2.50024414 0.11352539 -2.50024414 0.11352539 0 0 Z " transform="translate(420.500244140625,289.886474609375)" style="fill: #4FB4E7;"/><path d="M0 0 C-0.598125 0.268125 -1.19625 0.53625 -1.8125 0.8125 C-4.59809646 2.32468094 -6.3433037 4.22390437 -8.375 6.625 C-10.48059676 8.4066588 -12.30492384 8.63580052 -15 9 C-14.67 8.01 -14.34 7.02 -14 6 C-14.99 5.67 -15.98 5.34 -17 5 C-11.65467807 1.43645204 -6.50060481 -0.48754536 0 0 Z " transform="translate(622,575)" style="fill: #2C9BD7;"/><path d="M0 0 C1.5625 1.125 1.5625 1.125 3 3 C2.74850872 5.01193023 2.39080797 7.01043215 2 9 C1.99186958 11.84158165 2.06196129 14.67192059 2.16015625 17.51171875 C2 20 2 20 0 23 C-0.81943398 17.99234789 -1.13508122 13.21601392 -1.125 8.125 C-1.12757813 6.80757813 -1.13015625 5.49015625 -1.1328125 4.1328125 C-1 1 -1 1 0 0 Z " transform="translate(433,447)" style="fill: #06476D;"/><path d="M0 0 C0 1.32 0 2.64 0 4 C-5.94 3.67 -11.88 3.34 -18 3 C-18.33 2.34 -18.66 1.68 -19 1 C-12.62694402 0.25492456 -6.41688675 -0.10349817 0 0 Z " transform="translate(496,701)" style="fill: #094D87;"/><path d="M0 0 C2.26979665 -0.10794277 4.54105196 -0.18556176 6.8125 -0.25 C8.07707031 -0.29640625 9.34164063 -0.3428125 10.64453125 -0.390625 C14 0 14 0 15.94921875 1.890625 C17 4 17 4 17 6 C14.69 6 12.38 6 10 6 C10.33 5.34 10.66 4.68 11 4 C11.99 4 12.98 4 14 4 C9.03926578 2.67713754 4.08888488 2.91106803 -1 3 C-0.67 2.01 -0.34 1.02 0 0 Z " transform="translate(478,632)" style="fill: #10507E;"/><path d="M0 0 C1.16144531 0.20367188 2.32289063 0.40734375 3.51953125 0.6171875 C4.39996094 0.78476562 5.28039062 0.95234375 6.1875 1.125 C5.8575 1.785 5.5275 2.445 5.1875 3.125 C-0.4225 3.125 -6.0325 3.125 -11.8125 3.125 C-11.8125 2.465 -11.8125 1.805 -11.8125 1.125 C-7.51476021 -1.06029142 -4.69136533 -0.85297551 0 0 Z " transform="translate(427.8125,772.875)" style="fill: #094D88;"/><path d="M0 0 C2.97 0 5.94 0 9 0 C8.67 1.32 8.34 2.64 8 4 C7.34 4 6.68 4 6 4 C6.48484276 8.64586892 6.48484276 8.64586892 8 13 C4.04 13 0.08 13 -4 13 C-4 12.67 -4 12.34 -4 12 C-1.36 11.67 1.28 11.34 4 11 C4.20970559 6.85906302 4.20970559 6.85906302 3 3 C2.01 2.67 1.02 2.34 0 2 C0 1.34 0 0.68 0 0 Z " transform="translate(300,725)" style="fill: #114E7F;"/><path d="M0 0 C0.33 0 0.66 0 1 0 C1.36743024 11.7577678 0.62648176 22.52477612 -2 34 C-2.33 34 -2.66 34 -3 34 C-3.12022642 28.22913206 -2.91696124 22.70553659 -2 17 C-1.67 16.67 -1.34 16.34 -1 16 C-0.76321284 13.30764224 -0.57801975 10.63501844 -0.4375 7.9375 C-0.39431641 7.17888672 -0.35113281 6.42027344 -0.30664062 5.63867188 C-0.20026367 3.75934562 -0.09960066 1.87969756 0 0 Z " transform="translate(637,461)" style="fill: #4093C3;"/><path d="M0 0 C2 3 2 3 2 5 C6.62 5 11.24 5 16 5 C16 5.66 16 6.32 16 7 C9.4 7 2.8 7 -4 7 C-3.01 6.67 -2.02 6.34 -1 6 C-1.020625 5.195625 -1.04125 4.39125 -1.0625 3.5625 C-1 1 -1 1 0 0 Z " transform="translate(479,779)" style="fill: #0B4B7E;"/><path d="M0 0 C4.95 0 9.9 0 15 0 C13.35 1.98 11.7 3.96 10 6 C9.67 5.01 9.34 4.02 9 3 C6.03 3 3.06 3 0 3 C0 2.01 0 1.02 0 0 Z " transform="translate(529,722)" style="fill: #1968A2;"/><path d="M0 0 C2.31 0 4.62 0 7 0 C6.67 0.66 6.34 1.32 6 2 C10.29 2.33 14.58 2.66 19 3 C19 3.66 19 4.32 19 5 C18.34 5 17.68 5 17 5 C16.67 6.32 16.34 7.64 16 9 C15.67 9 15.34 9 15 9 C15 7.35 15 5.7 15 4 C10.05 4 5.1 4 0 4 C0 2.68 0 1.36 0 0 Z " transform="translate(274,707)" style="fill: #144F85;"/><path d="M0 0 C3.96 0 7.92 0 12 0 C12 0.99 12 1.98 12 3 C11.01 3 10.02 3 9 3 C9 3.66 9 4.32 9 5 C5.87709365 4.51421457 3.00419641 4.0013988 0 3 C0 2.01 0 1.02 0 0 Z " transform="translate(444,624)" style="fill: #175380;"/><path d="M0 0 C1.66611905 -0.042721 3.33382885 -0.04063832 5 0 C5.33 0.33 5.66 0.66 6 1 C8.32817964 1.36760731 10.6618385 1.70241581 13 2 C13 2.33 13 2.66 13 3 C10.39724671 3.3893647 7.79393651 3.76193662 5.1875 4.125 C4.44951172 4.23714844 3.71152344 4.34929688 2.95117188 4.46484375 C-2.66015625 5.2265625 -2.66015625 5.2265625 -6 3 C-5 2 -5 2 -2.4375 1.9375 C-1.2309375 1.9684375 -1.2309375 1.9684375 0 2 C0 1.34 0 0.68 0 0 Z " transform="translate(537,633)" style="fill: #1B5682;"/><path d="M0 0 C3.38751913 3.04008127 6.22388067 6.40132679 9 10 C5.6354759 10 3.94360042 9.61898023 1 8 C-0.8125 4.875 -0.8125 4.875 -2 2 C-2.99 2 -3.98 2 -5 2 C-3 0 -3 0 0 0 Z " transform="translate(642,766)" style="fill: #F18540;"/><path d="M0 0 C0.66 0.33 1.32 0.66 2 1 C-1.89693476 6.29983127 -6.54947539 10.36631693 -12 14 C-12.66 13.01 -13.32 12.02 -14 11 C-13.24074219 10.45730469 -12.48148438 9.91460938 -11.69921875 9.35546875 C-10.70535156 8.64003906 -9.71148438 7.92460938 -8.6875 7.1875 C-7.70136719 6.47980469 -6.71523438 5.77210938 -5.69921875 5.04296875 C-3.59942813 3.45369163 -1.77965031 1.92542371 0 0 Z " transform="translate(663,546)" style="fill: #4D95C8;"/><path d="M0 0 C3.70129644 0.38961015 5.61879622 1.11749016 8 4 C7 5 7 5 4.71484375 5.09765625 C3.34005859 5.08025391 3.34005859 5.08025391 1.9375 5.0625 C1.01839844 5.05347656 0.09929688 5.04445313 -0.84765625 5.03515625 C-1.55792969 5.02355469 -2.26820313 5.01195312 -3 5 C-1.125 1.125 -1.125 1.125 0 0 Z " transform="translate(518,723)" style="fill: #064D88;"/><path d="M0 0 C0.33 0 0.66 0 1 0 C1.3690205 15.74487472 1.3690205 15.74487472 -1 23 C-1.66 23 -2.32 23 -3 23 C-2.6902353 20.1038504 -2.37728812 17.20810424 -2.0625 14.3125 C-1.97548828 13.49587891 -1.88847656 12.67925781 -1.79882812 11.83789062 C-1.36241272 7.84549781 -0.88697624 3.92347148 0 0 Z " transform="translate(591,473)" style="fill: #0C4B77;"/><path d="M0 0 C0.33 0.99 0.66 1.98 1 3 C1.66 2.67 2.32 2.34 3 2 C2.75 4.875 2.75 4.875 2 8 C0.0625 9.3125 0.0625 9.3125 -2 10 C-2.99 10.495 -2.99 10.495 -4 11 C-3.91291331 9.54054712 -3.80473093 8.08234132 -3.6875 6.625 C-3.62949219 5.81289063 -3.57148438 5.00078125 -3.51171875 4.1640625 C-3 2 -3 2 0 0 Z " transform="translate(401,341)" style="fill: #36AAE5;"/><path d="M0 0 C0.66 0 1.32 0 2 0 C1.649375 0.763125 1.29875 1.52625 0.9375 2.3125 C-0.32360884 5.04759379 -0.32360884 5.04759379 1 8 C0.0390625 9.82421875 0.0390625 9.82421875 -1.375 11.6875 C-1.83648437 12.31011719 -2.29796875 12.93273437 -2.7734375 13.57421875 C-3.17820312 14.04472656 -3.58296875 14.51523437 -4 15 C-4.33 15 -4.66 15 -5 15 C-4.56826496 8.84777564 -3.34594658 5.18082051 0 0 Z " transform="translate(412,325)" style="fill: #106EA5;"/><path d="M0 0 C0 4.62 0 9.24 0 14 C-0.99 13.67 -1.98 13.34 -3 13 C-3 9.04 -3 5.08 -3 1 C-1 0 -1 0 0 0 Z " transform="translate(408,735)" style="fill: #0C5385;"/><path d="M0 0 C2.38671875 0.37109375 2.38671875 0.37109375 5.01171875 2.37109375 C5.69234375 3.36109375 5.69234375 3.36109375 6.38671875 4.37109375 C5.39671875 4.37109375 4.40671875 4.37109375 3.38671875 4.37109375 C3.38671875 3.71109375 3.38671875 3.05109375 3.38671875 2.37109375 C1.46807104 2.62751679 -0.44819119 2.90182811 -2.36328125 3.18359375 C-3.430625 3.33441406 -4.49796875 3.48523438 -5.59765625 3.640625 C-8.66779219 4.38429782 -10.27408603 5.29874847 -12.61328125 7.37109375 C-9.67706342 0.82106936 -7.00018573 -0.17372724 0 0 Z " transform="translate(734.61328125,690.62890625)" style="fill: #ED8A4B;"/><path d="M0 0 C6.01077136 1.63040815 12.01663928 3.27147357 18 5 C18 5.33 18 5.66 18 6 C11.42684522 6.36517527 6.20514474 5.13619737 0 3 C0 2.01 0 1.02 0 0 Z " transform="translate(508,580)" style="fill: #237FB4;"/><path d="M0 0 C2.3385104 3.50776561 2.77589301 5.81666944 3 10 C1.625 11.625 1.625 11.625 0 13 C-0.72197162 15.60611077 -0.72197162 15.60611077 -1 18 C-1.33 18 -1.66 18 -2 18 C-2.23268915 11.71739294 -1.40454548 6.11980533 0 0 Z " transform="translate(340,428)" style="fill: #3C92BF;"/><path d="M0 0 C1.6510403 0.39553053 3.2958515 0.81713897 4.9375 1.25 C5.85402344 1.48203125 6.77054688 1.7140625 7.71484375 1.953125 C10 3 10 3 10.81640625 5.109375 C10.87699219 5.73328125 10.93757812 6.3571875 11 7 C9.234375 7.67578125 9.234375 7.67578125 7 8 C5.078125 6.85546875 5.078125 6.85546875 3.25 5.1875 C2.63640625 4.64480469 2.0228125 4.10210937 1.390625 3.54296875 C0 2 0 2 0 0 Z " transform="translate(559,432)" style="fill: #19537B;"/><path d="M0 0 C-5.14285714 5.57142857 -5.14285714 5.57142857 -9 6 C-9 2 -9 2 -7.3125 0.1875 C-4.42050674 -1.29757762 -3.04794934 -0.93131785 0 0 Z " transform="translate(458,780)" style="fill: #216CA4;"/><path d="M0 0 C1.89492188 0.15275391 1.89492188 0.15275391 3.828125 0.30859375 C4.79234375 0.39238281 5.7565625 0.47617187 6.75 0.5625 C3.28767506 2.87071663 1.83201684 2.83250989 -2.25 2.8125 C-3.301875 2.81765625 -4.35375 2.8228125 -5.4375 2.828125 C-8.25 2.5625 -8.25 2.5625 -11.25 0.5625 C-7.43483536 -0.73812431 -3.97438237 -0.33119853 0 0 Z " transform="translate(533.25,784.4375)" style="fill: #104F82;"/><path d="M0 0 C2.31 0 4.62 0 7 0 C7 1.98 7 3.96 7 6 C6.67 5.34 6.34 4.68 6 4 C5.34 5.98 4.68 7.96 4 10 C3.67 10 3.34 10 3 10 C2.67 7.69 2.34 5.38 2 3 C1.01 3 0.02 3 -1 3 C-0.67 2.01 -0.34 1.02 0 0 Z " transform="translate(671,720)" style="fill: #EC843E;"/><path d="M0 0 C3.3 0 6.6 0 10 0 C10 0.66 10 1.32 10 2 C5.8204355 4.78637633 3.85331323 3.79562512 -1 3 C-0.67 2.01 -0.34 1.02 0 0 Z " transform="translate(584,616)" style="fill: #0E4372;"/><path d="M0 0 C1.98 0.99 1.98 0.99 4 2 C3.67 4.64 3.34 7.28 3 10 C2.01 10.33 1.02 10.66 0 11 C0 7.37 0 3.74 0 0 Z " transform="translate(440,518)" style="fill: #0F5C8A;"/><path d="M0 0 C2.64 0 5.28 0 8 0 C7.125 4.75 7.125 4.75 6 7 C5.01 6.67 4.02 6.34 3 6 C3 4.68 3 3.36 3 2 C2.01 2 1.02 2 0 2 C0 1.34 0 0.68 0 0 Z " transform="translate(453,725)" style="fill: #10558E;"/><path d="M0 0 C1.32 0.33 2.64 0.66 4 1 C3.39009109 4.55780196 2.4216319 7.6828589 1 11 C0.34 11 -0.32 11 -1 11 C-1.33 9.02 -1.66 7.04 -2 5 C-1.34 5 -0.68 5 0 5 C0 3.35 0 1.7 0 0 Z " transform="translate(404,323)" style="fill: #34A2DA;"/><path d="M0 0 C0.125 3.375 0.125 3.375 0 7 C-0.66 7.66 -1.32 8.32 -2 9 C-2.64767793 11.57061311 -2.64767793 11.57061311 -3 14 C-3.33 14 -3.66 14 -4 14 C-4.33 10.04 -4.66 6.08 -5 2 C-1 0 -1 0 0 0 Z " transform="translate(344,487)" style="fill: #2277AA;"/><path d="M0 0 C0.33 1.98 0.66 3.96 1 6 C0.34 6 -0.32 6 -1 6 C-1 5.34 -1 4.68 -1 4 C-2.98 4.33 -4.96 4.66 -7 5 C-7 4.34 -7 3.68 -7 3 C-7.66 2.34 -8.32 1.68 -9 1 C-5.92677456 0.08941469 -3.19902639 -0.08886184 0 0 Z " transform="translate(634,440)" style="fill: #2C5C7A;"/><path d="M0 0 C1 2 1 2 0.44140625 4.1640625 C0.15136719 4.97617187 -0.13867188 5.78828125 -0.4375 6.625 C-0.72496094 7.44226563 -1.01242187 8.25953125 -1.30859375 9.1015625 C-1.65083984 10.04128906 -1.65083984 10.04128906 -2 11 C-2.99 10.01 -3.98 9.02 -5 8 C-6.98 8.99 -6.98 8.99 -9 10 C-8.06409496 8.8944811 -7.12620142 7.79064547 -6.1875 6.6875 C-5.66542969 6.07261719 -5.14335937 5.45773437 -4.60546875 4.82421875 C-3.12827531 3.14575321 -1.59960869 1.56117966 0 0 Z " transform="translate(394,336)" style="fill: #3FA9DD;"/><path d="M0 0 C0.33 0 0.66 0 1 0 C1.28875 1.051875 1.5775 2.10375 1.875 3.1875 C2.88160919 6.85460445 2.88160919 6.85460445 4.125 9.6875 C5 12 5 12 5 16 C4.34 16 3.68 16 3 16 C0.1647887 10.4477112 -0.37952295 6.19887485 0 0 Z " transform="translate(324,758)" style="fill: #105781;"/><path d="M0 0 C0.66 0.33 1.32 0.66 2 1 C3.49044586 7.87898089 3.49044586 7.87898089 1.6875 12 C1.130625 12.66 0.57375 13.32 0 14 C-0.66 14 -1.32 14 -2 14 C-1.67 12.68 -1.34 11.36 -1 10 C-0.34 10 0.32 10 1 10 C0.67 9.34 0.34 8.68 0 8 C-0.13415472 5.3276379 -0.04318541 2.67749512 0 0 Z " transform="translate(741,695)" style="fill: #EF8F54;"/><path d="M0 0 C-0.33 0.99 -0.66 1.98 -1 3 C-2.4370809 3.05422947 -3.87475462 3.09289723 -5.3125 3.125 C-6.11300781 3.14820313 -6.91351562 3.17140625 -7.73828125 3.1953125 C-10 3 -10 3 -13 1 C-11.39796533 0.63631108 -9.79325797 0.28438048 -8.1875 -0.0625 C-7.29417969 -0.25972656 -6.40085937 -0.45695313 -5.48046875 -0.66015625 C-3 -1 -3 -1 0 0 Z " transform="translate(566,539)" style="fill: #1D6B9E;"/><path d="M0 0 C3.3 0.33 6.6 0.66 10 1 C10 1.33 10 1.66 10 2 C8.741875 2.04125 7.48375 2.0825 6.1875 2.125 C3.98515332 2.31167437 3.98515332 2.31167437 2 3 C0.04901119 5.90074931 0.04901119 5.90074931 -1 9 C-1.99 9.495 -1.99 9.495 -3 10 C-2.46599103 6.08393425 -1.80330533 3.60661066 0 0 Z " transform="translate(416,292)" style="fill: #26A2DF;"/><path d="M0 0 C0 0.66 0 1.32 0 2 C-4.42404768 4.83139051 -8.91993923 4.3540529 -13.9375 3.5 C-14.618125 3.335 -15.29875 3.17 -16 3 C-16 2.67 -16 2.34 -16 2 C-10.61972975 0.80911014 -5.54708616 -0.2919519 0 0 Z " transform="translate(492,634)" style="fill: #326E99;"/><path d="M0 0 C-0.33 2.31 -0.66 4.62 -1 7 C-4 8 -4 8 -6 7 C-5.37162381 3.35541809 -4.14650034 0 0 0 Z " transform="translate(402,330)" style="fill: #03233D;"/><path d="M0 0 C0.99 0.33 1.98 0.66 3 1 C1.02 4.96 -0.96 8.92 -3 13 C-3.66 11.68 -4.32 10.36 -5 9 C-4.1015625 6.640625 -4.1015625 6.640625 -2.625 4.25 C-2.14289063 3.45078125 -1.66078125 2.6515625 -1.1640625 1.828125 C-0.77992188 1.22484375 -0.39578125 0.6215625 0 0 Z " transform="translate(415,290)" style="fill: #DAEFF6;"/><path d="M0 0 C0.12375 0.5775 0.2475 1.155 0.375 1.75 C1.00648824 4.02335767 1.88858191 5.9253529 3 8 C-0.43927579 6.7580393 -3.25207819 5.44259716 -6 3 C-6 2.34 -6 1.68 -6 1 C-3 0 -3 0 0 0 Z " transform="translate(409,600)" style="fill: #155585;"/><path d="M0 0 C2.475 0.99 2.475 0.99 5 2 C5 2.66 5 3.32 5 4 C5.99 4.33 6.98 4.66 8 5 C8 5.33 8 5.66 8 6 C5.66705225 6.04241723 3.33297433 6.04092937 1 6 C0 5 0 5 -0.0625 2.4375 C-0.041875 1.633125 -0.02125 0.82875 0 0 Z " transform="translate(403,372)" style="fill: #218EC8;"/><path d="M0 0 C0.66 0 1.32 0 2 0 C2 3.96 2 7.92 2 12 C1.34 12 0.68 12 0 12 C-1.28571429 3.42857143 -1.28571429 3.42857143 0 0 Z " transform="translate(534,345)" style="fill: #0E6CA6;"/><path d="M0 0 C5.28 0.33 10.56 0.66 16 1 C16 1.33 16 1.66 16 2 C8.08 2.495 8.08 2.495 0 3 C0 2.01 0 1.02 0 0 Z " transform="translate(560,509)" style="fill: #0D5283;"/><path d="M0 0 C0.33 0.99 0.66 1.98 1 3 C0 4 0 4 -2.50390625 4.09765625 C-4.01791016 4.08025391 -4.01791016 4.08025391 -5.5625 4.0625 C-6.57441406 4.05347656 -7.58632813 4.04445313 -8.62890625 4.03515625 C-9.41136719 4.02355469 -10.19382812 4.01195312 -11 4 C-11 3.34 -11 2.68 -11 2 C-7.37 1.34 -3.74 0.68 0 0 Z " transform="translate(576,505)" style="fill: #216C9F;"/><path d="M0 0 C1.32 0 2.64 0 4 0 C2.84414715 3.91211733 1.64465038 6.8745041 -1 10 C-1.125 2.25 -1.125 2.25 0 0 Z " transform="translate(441,435)" style="fill: #0F4D70;"/><path d="M0 0 C0.33 1.32 0.66 2.64 1 4 C-4.28 4 -9.56 4 -15 4 C-15 3.01 -15 2.02 -15 1 C-14.34 1 -13.68 1 -13 1 C-13 1.66 -13 2.32 -13 3 C-11.20759337 2.88610125 -9.41605165 2.75852313 -7.625 2.625 C-6.62726563 2.55539062 -5.62953125 2.48578125 -4.6015625 2.4140625 C-1.84491121 2.23636036 -1.84491121 2.23636036 0 0 Z " transform="translate(390,783)" style="fill: #115287;"/><path d="M0 0 C2.79872437 2.52788007 4.45773019 4.20411134 5 8 C2.36 8 -0.28 8 -3 8 C-2.01 7.67 -1.02 7.34 0 7 C0 4.69 0 2.38 0 0 Z " transform="translate(540,779)" style="fill: #236495;"/><path d="M0 0 C0.91007813 0.00902344 1.82015625 0.01804687 2.7578125 0.02734375 C3.45648437 0.03894531 4.15515625 0.05054688 4.875 0.0625 C2.53192863 2.77816987 2.13341401 3.0398321 -1.6875 3.375 C-5.125 3.0625 -5.125 3.0625 -7.125 1.0625 C-4.60024538 -0.19987731 -2.81299534 -0.03606404 0 0 Z " transform="translate(734.125,708.9375)" style="fill: #F19455;"/><path d="M0 0 C-1.29474635 2.58949269 -2.32663393 2.96035764 -5 4 C-7.75 4.125 -7.75 4.125 -10 4 C-10 3.01 -10 2.02 -10 1 C-6.52674819 -0.1577506 -3.63932552 -0.06866652 0 0 Z " transform="translate(555,416)" style="fill: #0C4468;"/><path d="M0 0 C2 2 2 2 3.4375 4.4375 C4.80163937 6.67468856 6.07324346 8.25674408 8 10 C1.125 9.125 1.125 9.125 0 8 C-0.14115161 5.32941149 -0.04247107 2.67567762 0 0 Z " transform="translate(346,759)" style="fill: #3274A1;"/><path d="M0 0 C-0.66 1.65 -1.32 3.3 -2 5 C-5.37462715 4.45276317 -7.08235 3.9451 -10 2 C-8.7090864 1.66376204 -7.41723903 1.33110751 -6.125 1 C-5.40570312 0.814375 -4.68640625 0.62875 -3.9453125 0.4375 C-2 0 -2 0 0 0 Z " transform="translate(658,401)" style="fill: #459DD5;"/><path d="M0 0 C2 3 2 3 2 5 C3.32 5.66 4.64 6.32 6 7 C6 7.33 6 7.66 6 8 C3.6875 8.25 3.6875 8.25 1 8 C-0.875 6.1875 -0.875 6.1875 -2 4 C-1 1 -1 1 0 0 Z " transform="translate(519,779)" style="fill: #1B5A8C;"/><path d="M0 0 C3.3 0.33 6.6 0.66 10 1 C9.67 1.66 9.34 2.32 9 3 C8.01 3 7.02 3 6 3 C6.99 3.66 7.98 4.32 9 5 C7.02 5 5.04 5 3 5 C3.33 4.01 3.66 3.02 4 2 C2.68 1.34 1.36 0.68 0 0 Z " transform="translate(526,586)" style="fill: #268CC2;"/><path d="M0 0 C0.99 0.33 1.98 0.66 3 1 C3 1.66 3 2.32 3 3 C3.66 3.33 4.32 3.66 5 4 C3.02 4.99 1.04 5.98 -1 7 C-1.625 4.625 -1.625 4.625 -2 2 C-1.34 1.34 -0.68 0.68 0 0 Z " transform="translate(657,414)" style="fill: #1E5B8D;"/><path d="M0 0 C0.66 0.66 1.32 1.32 2 2 C1.54625 2.556875 1.0925 3.11375 0.625 3.6875 C-1.03733768 6.05313439 -2.02144543 8.29015658 -3 11 C-4.1875 9.375 -4.1875 9.375 -5 7 C-2.80487805 1.40243902 -2.80487805 1.40243902 0 0 Z " transform="translate(358,384)" style="fill: #1D8EC6;"/><path d="M0 0 C3.375 -0.125 3.375 -0.125 7 0 C7.66 0.66 8.32 1.32 9 2 C5.78548731 3.60725635 2.56387464 3.05748185 -1 3 C-0.67 2.01 -0.34 1.02 0 0 Z " transform="translate(453,293)" style="fill: #229EDB;"/><path d="M0 0 C0.33 0 0.66 0 1 0 C1 2.31 1 4.62 1 7 C0.360625 7.103125 -0.27875 7.20625 -0.9375 7.3125 C-1.618125 7.539375 -2.29875 7.76625 -3 8 C-3.33 8.99 -3.66 9.98 -4 11 C-4.33 10.34 -4.66 9.68 -5 9 C-4.00390625 6.8359375 -4.00390625 6.8359375 -2.5625 4.375 C-2.08941406 3.55773437 -1.61632812 2.74046875 -1.12890625 1.8984375 C-0.75636719 1.27195312 -0.38382812 0.64546875 0 0 Z " transform="translate(370,757)" style="fill: #1D6595;"/><path d="M0 0 C0.33 0 0.66 0 1 0 C2.32286246 4.96073422 2.08893197 9.91111512 2 15 C1.67 15 1.34 15 1 15 C-0.66251802 9.42567486 -1.18609365 5.6932495 0 0 Z " transform="translate(342,424)" style="fill: #1678AE;"/><path d="M0 0 C2.64 0 5.28 0 8 0 C7.67 0.99 7.34 1.98 7 3 C4.69 3 2.38 3 0 3 C0 2.01 0 1.02 0 0 Z " transform="translate(620,784)" style="fill: #EC7122;"/><path d="M0 0 C0.66 0.33 1.32 0.66 2 1 C1.67 2.65 1.34 4.3 1 6 C-0.875 6.625 -0.875 6.625 -3 7 C-3.66 6.34 -4.32 5.68 -5 5 C-3.35 3.35 -1.7 1.7 0 0 Z " transform="translate(505,736)" style="fill: #095693;"/><path d="M0 0 C0.99 0.33 1.98 0.66 3 1 C2.34 2.32 1.68 3.64 1 5 C-2 5 -2 5 -5 3 C-3.35 2.67 -1.7 2.34 0 2 C0 1.34 0 0.68 0 0 Z " transform="translate(639,566)" style="fill: #3AA0DD;"/><path d="M0 0 C0 0.99 0 1.98 0 3 C-2.31 3.33 -4.62 3.66 -7 4 C-7.33 3.01 -7.66 2.02 -8 1 C-5.23735711 0.40267181 -2.83967231 0 0 0 Z " transform="translate(544,528)" style="fill: #064F83;"/><path d="M0 0 C0.33 0.99 0.66 1.98 1 3 C-0.9375 5.6875 -0.9375 5.6875 -3 8 C-3 7.34 -3 6.68 -3 6 C-3.99 6.33 -4.98 6.66 -6 7 C-4.60667426 3.63279613 -3.0210714 2.0140476 0 0 Z " transform="translate(687,385)" style="fill: #3B81BB;"/><path d="M0 0 C1.98 0.66 3.96 1.32 6 2 C3.60490662 4.89932357 1.68754757 5.50168276 -2 6 C-1.34 4.02 -0.68 2.04 0 0 Z " transform="translate(501,577)" style="fill: #1F7CB2;"/><path d="M0 0 C0.90492188 0.02320313 1.80984375 0.04640625 2.7421875 0.0703125 C4.10730469 0.09738281 4.10730469 0.09738281 5.5 0.125 C6.19867188 0.14820313 6.89734375 0.17140625 7.6171875 0.1953125 C7.2871875 0.8553125 6.9571875 1.5153125 6.6171875 2.1953125 C2.62852623 3.19247782 -0.4151194 3.2455842 -4.3828125 2.1953125 C-2.3828125 0.1953125 -2.3828125 0.1953125 0 0 Z " transform="translate(484.3828125,423.8046875)" style="fill: #073C61;"/><path d="M0 0 C2.97 0 5.94 0 9 0 C9 0.66 9 1.32 9 2 C4.545 2.495 4.545 2.495 0 3 C0 2.01 0 1.02 0 0 Z " transform="translate(518,336)" style="fill: #1273AD;"/><path d="M0 0 C0.99 0.33 1.98 0.66 3 1 C2.67 2.32 2.34 3.64 2 5 C2.66 5.33 3.32 5.66 4 6 C3.67 7.32 3.34 8.64 3 10 C2.34 10 1.68 10 1 10 C0.83266843 8.5209084 0.66615314 7.04172444 0.5 5.5625 C0.4071875 4.73878906 0.314375 3.91507812 0.21875 3.06640625 C0 1 0 1 0 0 Z " transform="translate(401,329)" style="fill: #2793CE;"/><path d="M0 0 C0 0.99 0 1.98 0 3 C-2.64 3 -5.28 3 -8 3 C-8 2.34 -8 1.68 -8 1 C-5.29120665 -0.35439668 -2.99066732 -0.06501451 0 0 Z " transform="translate(575,624)" style="fill: #0D4978;"/><path d="M0 0 C0.99 0.33 1.98 0.66 3 1 C1.63016497 4.16115776 1.0109362 4.9927092 -2 7 C-2.33 6.01 -2.66 5.02 -3 4 C-1.5625 1.8125 -1.5625 1.8125 0 0 Z " transform="translate(648,558)" style="fill: #298ACA;"/><path d="M0 0 C2 4 2 4 1.3125 6.125 C0 8 0 8 -3 10 C-2.01 6.7 -1.02 3.4 0 0 Z " transform="translate(348,402)" style="fill: #3EA1CF;"/><path d="M0 0 C0.33 0.99 0.66 1.98 1 3 C-0.65 4.65 -2.3 6.3 -4 8 C-4.33 7.34 -4.66 6.68 -5 6 C-2.59016393 1.29508197 -2.59016393 1.29508197 0 0 Z " transform="translate(362,377)" style="fill: #2899CF;"/><path d="M0 0 C0.33 0.99 0.66 1.98 1 3 C-1.64 4.98 -4.28 6.96 -7 9 C-7 8.01 -7 7.02 -7 6 C-6.34 6 -5.68 6 -5 6 C-4.34 4.68 -3.68 3.36 -3 2 C-2.01 2 -1.02 2 0 2 C0 1.34 0 0.68 0 0 Z " transform="translate(650,729)" style="fill: #F29B60;"/><path d="M0 0 C2.97 0 5.94 0 9 0 C5.55549263 2.29633824 3.06187717 2.54016485 -1 3 C-0.67 2.01 -0.34 1.02 0 0 Z " transform="translate(565,627)" style="fill: #1B5C8C;"/><path d="M0 0 C0.66 0.33 1.32 0.66 2 1 C0.88121617 2.17262904 -0.24523051 3.33795138 -1.375 4.5 C-2.00148438 5.1496875 -2.62796875 5.799375 -3.2734375 6.46875 C-5 8 -5 8 -7 8 C-6.34 6.68 -5.68 5.36 -5 4 C-4.34 4 -3.68 4 -3 4 C-3 3.34 -3 2.68 -3 2 C-2.01 1.34 -1.02 0.68 0 0 Z " transform="translate(631,587)" style="fill: #1B5181;"/><path d="M0 0 C-0.50603992 2.16874252 -0.99983813 3.99967627 -2 6 C-2.99 5.67 -3.98 5.34 -5 5 C-4.625 3.0625 -4.625 3.0625 -4 1 C-2 0 -2 0 0 0 Z " transform="translate(385,576)" style="fill: #135D8F;"/><path d="M0 0 C3.3 0 6.6 0 10 0 C9.67 0.99 9.34 1.98 9 3 C4.545 2.01 4.545 2.01 0 1 C0 0.67 0 0.34 0 0 Z " transform="translate(564,426)" style="fill: #205980;"/><path d="M0 0 C-0.99 1.485 -0.99 1.485 -2 3 C-5.125 3.1875 -5.125 3.1875 -8 3 C-8 2.34 -8 1.68 -8 1 C-5.29120665 -0.35439668 -2.99066732 -0.06501451 0 0 Z " transform="translate(349,784)" style="fill: #0D4A7E;"/><path d="M0 0 C0.598125 0.20625 1.19625 0.4125 1.8125 0.625 C-1.1575 3.1 -1.1575 3.1 -4.1875 5.625 C-4.5175 4.305 -4.8475 2.985 -5.1875 1.625 C-2.1875 -0.375 -2.1875 -0.375 0 0 Z " transform="translate(542.1875,722.375)" style="fill: #2C6DA3;"/><path d="M0 0 C3.96 1.98 3.96 1.98 8 4 C7.67 4.66 7.34 5.32 7 6 C5.35 5.67 3.7 5.34 2 5 C2 4.34 2 3.68 2 3 C1.34 3 0.68 3 0 3 C0 2.01 0 1.02 0 0 Z " transform="translate(488,570)" style="fill: #2277AB;"/><path d="M0 0 C0.33 0 0.66 0 1 0 C1.45572917 2.01822917 1.91145833 4.03645833 2.3671875 6.0546875 C2.90474428 8.20719964 2.90474428 8.20719964 5 10 C4.67 10.99 4.34 11.98 4 13 C0.47726246 8.48649253 -0.45732667 5.71658336 0 0 Z " transform="translate(393,359)" style="fill: #1C80B5;"/><path d="M0 0 C3.73487777 0.4979837 5.81237635 0.87491756 9 3 C9 3.66 9 4.32 9 5 C5.22454612 3.90931332 2.52956528 3.0916909 0 0 Z " transform="translate(599,781)" style="fill: #EF9257;"/><path d="M0 0 C2.1875 2.5 2.1875 2.5 4 5 C1.5625 4.625 1.5625 4.625 -1 4 C-1.33 3.34 -1.66 2.68 -2 2 C-2.99 2 -3.98 2 -5 2 C-3 0 -3 0 0 0 Z " transform="translate(642,766)" style="fill: #F2955B;"/><path d="M0 0 C1.65 0.33 3.3 0.66 5 1 C4.01 1.495 4.01 1.495 3 2 C1.86649466 4.01669827 1.86649466 4.01669827 1 6 C0.34 5.01 -0.32 4.02 -1 3 C-0.67 2.01 -0.34 1.02 0 0 Z " transform="translate(497,760)" style="fill: #0F548A;"/><path d="M0 0 C-4.30769231 3.07692308 -4.30769231 3.07692308 -7.8125 2.6875 C-8.534375 2.460625 -9.25625 2.23375 -10 2 C-6.80505194 -1.19494806 -4.22040044 -1.35655728 0 0 Z " transform="translate(428,722)" style="fill: #3370A0;"/><path d="M0 0 C1.32 0.66 2.64 1.32 4 2 C2.35 3.32 0.7 4.64 -1 6 C-1.33 5.01 -1.66 4.02 -2 3 C-1.34 2.01 -0.68 1.02 0 0 Z " transform="translate(459,411)" style="fill: #3096C9;"/><path d="M0 0 C0.66 0.33 1.32 0.66 2 1 C0.50163895 4.11198065 -1.19933758 7.0534615 -3 10 C-3.33 9.34 -3.66 8.68 -4 8 C-3.22265625 6.0546875 -3.22265625 6.0546875 -2.0625 3.875 C-1.68222656 3.15054687 -1.30195313 2.42609375 -0.91015625 1.6796875 C-0.60980469 1.12539063 -0.30945313 0.57109375 0 0 Z " transform="translate(414,319)" style="fill: #1276B0;"/><path d="M0 0 C1.65 0.33 3.3 0.66 5 1 C4.67 1.66 4.34 2.32 4 3 C0.7 3 -2.6 3 -6 3 C-6 2.67 -6 2.34 -6 2 C-4.02 2 -2.04 2 0 2 C0 1.34 0 0.68 0 0 Z " transform="translate(429,773)" style="fill: #0D548F;"/><path d="M0 0 C0.33 0 0.66 0 1 0 C1 1.98 1 3.96 1 6 C0.34 6 -0.32 6 -1 6 C-1.33 6.99 -1.66 7.98 -2 9 C-2.6875 6.75 -2.6875 6.75 -3 4 C-1.625 1.6875 -1.625 1.6875 0 0 Z " transform="translate(410,769)" style="fill: #075287;"/><path d="M0 0 C4.31392226 0.4793247 6.16569547 1.7457985 9 5 C4.98525763 5 3.18024863 3.33218233 0 1 C0 0.67 0 0.34 0 0 Z " transform="translate(409,380)" style="fill: #136C9E;"/><path d="M0 0 C0.33 0.99 0.66 1.98 1 3 C-2.3 2.67 -5.6 2.34 -9 2 C-5.23312136 0.11656068 -3.97041037 -0.22057835 0 0 Z " transform="translate(522,339)" style="fill: #2B89C1;"/></svg>